<mxfile host="app.diagrams.net" modified="2024-04-15T10:06:16.003Z" agent="Mozilla/5.0 (X11; Linux x86_64) AppleWebKit/537.36 (KHTML, like Gecko) Chrome/121.0.0.0 Safari/537.36" etag="85wjgnE6SHj07dizjAqq" version="24.2.5" type="github">
  <diagram name="Page-1" id="wio5yj4S-nLgXlZparab">
    <mxGraphModel dx="1362" dy="793" grid="1" gridSize="10" guides="1" tooltips="1" connect="1" arrows="1" fold="1" page="1" pageScale="1" pageWidth="850" pageHeight="1100" math="0" shadow="0">
      <root>
        <mxCell id="0" />
        <mxCell id="1" parent="0" />
        <mxCell id="iXm6EHfuL8SRXHj4JVu6-2" value="palavras" style="rounded=0;whiteSpace=wrap;html=1;strokeWidth=3;fontSize=18;fillColor=#76608a;fontColor=#ffffff;strokeColor=#432D57;" parent="1" vertex="1">
          <mxGeometry x="400" y="30" width="80" height="40" as="geometry" />
        </mxCell>
        <mxCell id="iXm6EHfuL8SRXHj4JVu6-3" value="" style="ellipse;whiteSpace=wrap;html=1;aspect=fixed;strokeWidth=3;fillColor=#6d8764;fontColor=#ffffff;strokeColor=#3A5431;" parent="1" vertex="1">
          <mxGeometry x="280" y="150" width="40" height="40" as="geometry" />
        </mxCell>
        <mxCell id="iXm6EHfuL8SRXHj4JVu6-4" value="" style="ellipse;whiteSpace=wrap;html=1;aspect=fixed;strokeWidth=3;fillColor=#6d8764;fontColor=#ffffff;strokeColor=#3A5431;" parent="1" vertex="1">
          <mxGeometry x="560" y="150" width="40" height="40" as="geometry" />
        </mxCell>
        <mxCell id="iXm6EHfuL8SRXHj4JVu6-5" value="" style="endArrow=none;html=1;rounded=0;exitX=0;exitY=1;exitDx=0;exitDy=0;entryX=0.5;entryY=0;entryDx=0;entryDy=0;strokeWidth=3;endFill=0;" parent="1" source="iXm6EHfuL8SRXHj4JVu6-2" target="iXm6EHfuL8SRXHj4JVu6-3" edge="1">
          <mxGeometry width="50" height="50" relative="1" as="geometry">
            <mxPoint x="400" y="380" as="sourcePoint" />
            <mxPoint x="450" y="330" as="targetPoint" />
          </mxGeometry>
        </mxCell>
        <mxCell id="iXm6EHfuL8SRXHj4JVu6-6" value="" style="endArrow=none;html=1;rounded=0;exitX=1;exitY=1;exitDx=0;exitDy=0;entryX=0.5;entryY=0;entryDx=0;entryDy=0;strokeWidth=3;endFill=0;" parent="1" source="iXm6EHfuL8SRXHj4JVu6-2" target="iXm6EHfuL8SRXHj4JVu6-4" edge="1">
          <mxGeometry width="50" height="50" relative="1" as="geometry">
            <mxPoint x="410" y="80" as="sourcePoint" />
            <mxPoint x="310" y="160" as="targetPoint" />
          </mxGeometry>
        </mxCell>
        <mxCell id="iXm6EHfuL8SRXHj4JVu6-7" value="" style="endArrow=none;html=1;rounded=0;exitX=0;exitY=1;exitDx=0;exitDy=0;entryX=0.5;entryY=0;entryDx=0;entryDy=0;strokeWidth=3;endFill=0;" parent="1" source="iXm6EHfuL8SRXHj4JVu6-3" target="iXm6EHfuL8SRXHj4JVu6-8" edge="1">
          <mxGeometry width="50" height="50" relative="1" as="geometry">
            <mxPoint x="420" y="90" as="sourcePoint" />
            <mxPoint x="320" y="170" as="targetPoint" />
          </mxGeometry>
        </mxCell>
        <mxCell id="iXm6EHfuL8SRXHj4JVu6-8" value="" style="ellipse;whiteSpace=wrap;html=1;aspect=fixed;strokeWidth=3;fillColor=#6d8764;fontColor=#ffffff;strokeColor=#3A5431;" parent="1" vertex="1">
          <mxGeometry x="200" y="270" width="40" height="40" as="geometry" />
        </mxCell>
        <mxCell id="iXm6EHfuL8SRXHj4JVu6-9" value="" style="ellipse;whiteSpace=wrap;html=1;aspect=fixed;strokeWidth=3;fillColor=#6d8764;fontColor=#ffffff;strokeColor=#3A5431;" parent="1" vertex="1">
          <mxGeometry x="360" y="270" width="40" height="40" as="geometry" />
        </mxCell>
        <mxCell id="iXm6EHfuL8SRXHj4JVu6-10" value="" style="ellipse;whiteSpace=wrap;html=1;aspect=fixed;strokeWidth=3;fillColor=#6d8764;fontColor=#ffffff;strokeColor=#3A5431;" parent="1" vertex="1">
          <mxGeometry x="480" y="270" width="40" height="40" as="geometry" />
        </mxCell>
        <mxCell id="iXm6EHfuL8SRXHj4JVu6-11" value="" style="ellipse;whiteSpace=wrap;html=1;aspect=fixed;strokeWidth=3;fillColor=#6d8764;fontColor=#ffffff;strokeColor=#3A5431;" parent="1" vertex="1">
          <mxGeometry x="640" y="270" width="40" height="40" as="geometry" />
        </mxCell>
        <mxCell id="iXm6EHfuL8SRXHj4JVu6-12" value="" style="endArrow=none;html=1;rounded=0;exitX=1;exitY=1;exitDx=0;exitDy=0;entryX=0.5;entryY=0;entryDx=0;entryDy=0;strokeWidth=3;endFill=0;" parent="1" source="iXm6EHfuL8SRXHj4JVu6-3" target="iXm6EHfuL8SRXHj4JVu6-9" edge="1">
          <mxGeometry width="50" height="50" relative="1" as="geometry">
            <mxPoint x="296" y="194" as="sourcePoint" />
            <mxPoint x="230" y="280" as="targetPoint" />
          </mxGeometry>
        </mxCell>
        <mxCell id="iXm6EHfuL8SRXHj4JVu6-13" value="" style="endArrow=none;html=1;rounded=0;exitX=0;exitY=1;exitDx=0;exitDy=0;entryX=0.5;entryY=0;entryDx=0;entryDy=0;strokeWidth=3;endFill=0;" parent="1" source="iXm6EHfuL8SRXHj4JVu6-4" target="iXm6EHfuL8SRXHj4JVu6-10" edge="1">
          <mxGeometry width="50" height="50" relative="1" as="geometry">
            <mxPoint x="324" y="194" as="sourcePoint" />
            <mxPoint x="390" y="280" as="targetPoint" />
          </mxGeometry>
        </mxCell>
        <mxCell id="iXm6EHfuL8SRXHj4JVu6-14" value="" style="endArrow=none;html=1;rounded=0;exitX=1;exitY=1;exitDx=0;exitDy=0;entryX=0.5;entryY=0;entryDx=0;entryDy=0;strokeWidth=3;endFill=0;" parent="1" source="iXm6EHfuL8SRXHj4JVu6-4" target="iXm6EHfuL8SRXHj4JVu6-11" edge="1">
          <mxGeometry width="50" height="50" relative="1" as="geometry">
            <mxPoint x="576" y="194" as="sourcePoint" />
            <mxPoint x="510" y="280" as="targetPoint" />
          </mxGeometry>
        </mxCell>
        <mxCell id="iXm6EHfuL8SRXHj4JVu6-15" value="" style="rounded=0;whiteSpace=wrap;html=1;strokeWidth=3;fillColor=#e51400;strokeColor=#B20000;fontColor=#ffffff;" parent="1" vertex="1">
          <mxGeometry x="200" y="371" width="40" height="120" as="geometry" />
        </mxCell>
        <mxCell id="iXm6EHfuL8SRXHj4JVu6-16" value="" style="rounded=0;whiteSpace=wrap;html=1;strokeWidth=3;fillColor=#e51400;strokeColor=#B20000;fontColor=#ffffff;" parent="1" vertex="1">
          <mxGeometry x="360" y="471" width="40" height="20" as="geometry" />
        </mxCell>
        <mxCell id="iXm6EHfuL8SRXHj4JVu6-17" value="" style="rounded=0;whiteSpace=wrap;html=1;strokeWidth=3;fillColor=#e51400;strokeColor=#B20000;fontColor=#ffffff;" parent="1" vertex="1">
          <mxGeometry x="480" y="480" width="40" height="10" as="geometry" />
        </mxCell>
        <mxCell id="iXm6EHfuL8SRXHj4JVu6-18" value="" style="rounded=0;whiteSpace=wrap;html=1;strokeWidth=3;fillColor=#e51400;strokeColor=#B20000;fontColor=#ffffff;" parent="1" vertex="1">
          <mxGeometry x="640" y="360" width="40" height="130" as="geometry" />
        </mxCell>
        <mxCell id="iXm6EHfuL8SRXHj4JVu6-19" value="" style="endArrow=none;html=1;rounded=0;strokeWidth=3;fillColor=#e51400;strokeColor=#B20000;" parent="1" edge="1">
          <mxGeometry width="50" height="50" relative="1" as="geometry">
            <mxPoint x="180" y="491" as="sourcePoint" />
            <mxPoint x="720" y="490" as="targetPoint" />
          </mxGeometry>
        </mxCell>
        <mxCell id="iXm6EHfuL8SRXHj4JVu6-21" value="palavra&lt;sup&gt;(a)&lt;/sup&gt;" style="text;html=1;align=center;verticalAlign=middle;whiteSpace=wrap;rounded=0;fontSize=17;" parent="1" vertex="1">
          <mxGeometry x="180" y="503" width="90" height="30" as="geometry" />
        </mxCell>
        <mxCell id="iXm6EHfuL8SRXHj4JVu6-22" value="palavra&lt;sup&gt;(b)&lt;/sup&gt;" style="text;html=1;align=center;verticalAlign=middle;whiteSpace=wrap;rounded=0;fontSize=17;" parent="1" vertex="1">
          <mxGeometry x="331" y="502" width="110" height="30" as="geometry" />
        </mxCell>
        <mxCell id="iXm6EHfuL8SRXHj4JVu6-23" value="palavra&lt;sup&gt;(c)&lt;/sup&gt;" style="text;html=1;align=center;verticalAlign=middle;whiteSpace=wrap;rounded=0;fontSize=17;" parent="1" vertex="1">
          <mxGeometry x="480" y="502" width="60" height="30" as="geometry" />
        </mxCell>
        <mxCell id="iXm6EHfuL8SRXHj4JVu6-24" value="palavra&lt;sup&gt;(d)&lt;/sup&gt;" style="text;html=1;align=center;verticalAlign=middle;whiteSpace=wrap;rounded=0;fontSize=17;" parent="1" vertex="1">
          <mxGeometry x="640" y="502" width="60" height="30" as="geometry" />
        </mxCell>
        <mxCell id="iXm6EHfuL8SRXHj4JVu6-25" value="0.91" style="text;html=1;align=center;verticalAlign=middle;whiteSpace=wrap;rounded=0;fontSize=18;fontStyle=2" parent="1" vertex="1">
          <mxGeometry x="190" y="341" width="60" height="30" as="geometry" />
        </mxCell>
        <mxCell id="iXm6EHfuL8SRXHj4JVu6-26" value="0.09" style="text;html=1;align=center;verticalAlign=middle;whiteSpace=wrap;rounded=0;fontSize=18;fontStyle=2" parent="1" vertex="1">
          <mxGeometry x="350" y="441" width="60" height="30" as="geometry" />
        </mxCell>
        <mxCell id="iXm6EHfuL8SRXHj4JVu6-27" value="0.05" style="text;html=1;align=center;verticalAlign=middle;whiteSpace=wrap;rounded=0;fontSize=18;fontStyle=2" parent="1" vertex="1">
          <mxGeometry x="470" y="450" width="60" height="30" as="geometry" />
        </mxCell>
        <mxCell id="iXm6EHfuL8SRXHj4JVu6-28" value="0.95" style="text;html=1;align=center;verticalAlign=middle;whiteSpace=wrap;rounded=0;fontSize=18;fontStyle=2" parent="1" vertex="1">
          <mxGeometry x="630" y="325" width="60" height="30" as="geometry" />
        </mxCell>
        <mxCell id="iXm6EHfuL8SRXHj4JVu6-30" value="0.57" style="text;html=1;align=center;verticalAlign=middle;whiteSpace=wrap;rounded=0;fontSize=18;fontStyle=2" parent="1" vertex="1">
          <mxGeometry x="300" y="80" width="60" height="30" as="geometry" />
        </mxCell>
        <mxCell id="iXm6EHfuL8SRXHj4JVu6-31" value="0.43" style="text;html=1;align=center;verticalAlign=middle;whiteSpace=wrap;rounded=0;fontSize=18;fontStyle=2" parent="1" vertex="1">
          <mxGeometry x="530" y="80" width="60" height="30" as="geometry" />
        </mxCell>
        <mxCell id="iXm6EHfuL8SRXHj4JVu6-32" value="0.78" style="text;html=1;align=center;verticalAlign=middle;whiteSpace=wrap;rounded=0;fontSize=18;fontStyle=2" parent="1" vertex="1">
          <mxGeometry x="200" y="190" width="60" height="30" as="geometry" />
        </mxCell>
        <mxCell id="iXm6EHfuL8SRXHj4JVu6-33" value="0.22" style="text;html=1;align=center;verticalAlign=middle;whiteSpace=wrap;rounded=0;fontSize=18;fontStyle=2" parent="1" vertex="1">
          <mxGeometry x="340" y="190" width="60" height="30" as="geometry" />
        </mxCell>
        <mxCell id="iXm6EHfuL8SRXHj4JVu6-34" value="0.17" style="text;html=1;align=center;verticalAlign=middle;whiteSpace=wrap;rounded=0;fontSize=18;fontStyle=2" parent="1" vertex="1">
          <mxGeometry x="490" y="190" width="60" height="30" as="geometry" />
        </mxCell>
        <mxCell id="iXm6EHfuL8SRXHj4JVu6-35" value="0.83" style="text;html=1;align=center;verticalAlign=middle;whiteSpace=wrap;rounded=0;fontSize=18;fontStyle=2" parent="1" vertex="1">
          <mxGeometry x="620" y="190" width="60" height="30" as="geometry" />
        </mxCell>
        <mxCell id="QnP2K8g2Wjl_phV1A9i5-4" value="" style="endArrow=classic;html=1;rounded=0;strokeColor=#0000FF;strokeWidth=4;" edge="1" parent="1">
          <mxGeometry width="50" height="50" relative="1" as="geometry">
            <mxPoint x="400" y="90" as="sourcePoint" />
            <mxPoint x="330" y="150" as="targetPoint" />
          </mxGeometry>
        </mxCell>
        <mxCell id="QnP2K8g2Wjl_phV1A9i5-6" value="" style="endArrow=classic;html=1;rounded=0;strokeColor=#0000FF;strokeWidth=4;" edge="1" parent="1">
          <mxGeometry width="50" height="50" relative="1" as="geometry">
            <mxPoint x="290" y="200" as="sourcePoint" />
            <mxPoint x="240" y="270" as="targetPoint" />
          </mxGeometry>
        </mxCell>
      </root>
    </mxGraphModel>
  </diagram>
</mxfile>
